# xmcd
#
# Track frame offsets: 
#        150
#        26250
#        39225
#        52575
#        59925
#        78750
#        86100
#        102825
#        113325
#        141375
#        152775
#        163800
#        174375
#        193350
#        212025
#        229050
#        255075
#        262950
#        272775
#        279150
#        296400
#        302925
#        329100
#        336825
#
# Disc length: 4660 seconds
#
# Revision: 7
# Processed by: cddbd v1.5.1PL0 Copyright (c) Steve Scherf et al.
# Submitted via: ExactAudioCopy v0.95a5
#
DISCID=53123218
DTITLE=The English Concert - Telemann Three Orchestral Suites
DYEAR=1992
DGENRE=Classical
TTITLE0=Suite in C - Dur TWV 55:C6 - (Grave) - Allegro
TTITLE1=Suite in C - Dur TWV 55:C6 - Harlequinade
TTITLE2=Suite in C - Dur TWV 55:C6 - Espagniol
TTITLE3=Suite in C - Dur TWV 55:C6 - Bouree en Trompette
TTITLE4=Suite in C - Dur TWV 55:C6 - Sommeille
TTITLE5=Suite in C - Dur TWV 55:C6 - Rondeau
TTITLE6=Suite in C - Dur TWV 55:C6 - Menuet I, II
TTITLE7=Suite in C - Dur TWV 55:C6 - Gigue
TTITLE8=Suite in D - Dur TWV 55:D19 - (ohne Tempobezeichnung)
TTITLE9=Suite in D - Dur TWV 55:D19 - Bouree
TTITLE10=Suite in D - Dur TWV 55:D19 - Loure
TTITLE11=Suite in D - Dur TWV 55:D19 - Rondeau (2)
TTITLE12=Suite in D - Dur TWV 55:D19 - Ecossoise
TTITLE13=Suite in D - Dur TWV 55:D19 - Minuet
TTITLE14=Suite in D - Dur TWV 55:D19 - Gigue (2)
TTITLE15=Suite in B - Dur TWV 55:B10 - Ouverture
TTITLE16=Suite in B - Dur TWV 55:B10 - Rondeau (2) (2)
TTITLE17=Suite in B - Dur TWV 55:B10 - Air un pui viste
TTITLE18=Suite in B - Dur TWV 55:B10 - Hornepipe
TTITLE19=Suite in B - Dur TWV 55:B10 - Menuet I, II (2)
TTITLE20=Suite in B - Dur TWV 55:B10 - Bouree (2)
TTITLE21=Suite in B - Dur TWV 55:B10 - Plainte
TTITLE22=Suite in B - Dur TWV 55:B10 - Combattans
TTITLE23=Suite in B - Dur TWV 55:B10 - Passepied I, II
EXTD=The english Concert, Peter Hanson on iriginal instruments\nRecord
EXTD=ing London Henry Wood Hall 1992
EXTT0=
EXTT1=
EXTT2=
EXTT3=
EXTT4=
EXTT5=
EXTT6=
EXTT7=
EXTT8=
EXTT9=
EXTT10=
EXTT11=
EXTT12=
EXTT13=
EXTT14=
EXTT15=
EXTT16=
EXTT17=
EXTT18=
EXTT19=
EXTT20=
EXTT21=
EXTT22=
EXTT23=
PLAYORDER=
